<svg width="26" height="26" viewBox="0 0 26 26" fill="none" xmlns="http://www.w3.org/2000/svg">
<path d="M13 0C5.82075 0 0 5.82075 0 13C0 20.1793 5.82075 26 13 26C20.1793 26 26 20.1793 26 13C26 5.82075 20.1793 0 13 0ZM19.5715 10.4488C19.7698 14.8254 16.5057 19.7048 10.7272 19.7048C8.97 19.7048 7.33525 19.1891 5.95833 18.3062C7.60933 18.5012 9.25708 18.0418 10.5647 17.0181C9.204 16.9932 8.05458 16.0929 7.657 14.8568C8.14558 14.95 8.62658 14.9229 9.06317 14.8038C7.56708 14.5026 6.53358 13.1549 6.56717 11.713C6.9875 11.9459 7.46633 12.0857 7.97658 12.1019C6.591 11.1757 6.19883 9.34592 7.0135 7.94733C8.5475 9.83017 10.8409 11.0684 13.4268 11.1984C12.9729 9.25275 14.4495 7.3775 16.4591 7.3775C17.3528 7.3775 18.1621 7.75558 18.7297 8.36008C19.4382 8.22142 20.1056 7.96142 20.7058 7.605C20.4728 8.33192 19.9799 8.94075 19.3375 9.32642C19.9669 9.25058 20.5671 9.08375 21.1239 8.83567C20.7079 9.46183 20.1814 10.01 19.5715 10.4488Z" fill="#3C3C3C"/>
</svg>
