<svg width="26" height="26" viewBox="0 0 26 26" fill="none" xmlns="http://www.w3.org/2000/svg">
<path fill-rule="evenodd" clip-rule="evenodd" d="M13 0C5.82075 0 0 5.82075 0 13C0 20.1793 5.82075 26 13 26C20.1793 26 26 20.1793 26 13C26 5.82075 20.1793 0 13 0ZM7.21473 19H9.90991V10.3206H7.21473V19ZM7 7.56091C7 8.42276 7.69904 9.13661 8.56087 9.13661C9.42241 9.13661 10.1217 8.42276 10.1217 7.56091C10.1217 7.14693 9.95729 6.74991 9.66457 6.45718C9.37185 6.16445 8.97484 6 8.56087 6C8.1469 6 7.74989 6.16445 7.45717 6.45718C7.16445 6.74991 7 7.14693 7 7.56091ZM17.3077 19H19.9971H20V14.2323C20 11.8992 19.4986 10.1029 16.7709 10.1029C15.4596 10.1029 14.5806 10.8226 14.2208 11.5045H14.1831V10.3206H11.5982V19H14.2904V14.7024C14.2904 13.5706 14.5052 12.4766 15.9065 12.4766C17.2874 12.4766 17.3077 13.768 17.3077 14.7749V19Z" fill="#3C3C3C"/>
</svg>
