<svg width="26" height="26" viewBox="0 0 26 26" fill="none" xmlns="http://www.w3.org/2000/svg">
<path fill-rule="evenodd" clip-rule="evenodd" d="M13 0C5.82075 0 0 5.82075 0 13C0 20.1793 5.82075 26 13 26C20.1793 26 26 20.1793 26 13C26 5.82075 20.1793 0 13 0ZM19.2511 7.35894C19.9395 7.55647 20.4817 8.13853 20.6657 8.87759C21 10.2172 21 13.0121 21 13.0121C21 13.0121 21 15.8071 20.6657 17.1467C20.4817 17.8857 19.9395 18.4435 19.2511 18.6411C18.0033 19 13 19 13 19C13 19 7.99669 19 6.7489 18.6411C6.06052 18.4435 5.51835 17.8857 5.33434 17.1467C5 15.8071 5 13.0121 5 13.0121C5 13.0121 5 10.2172 5.33434 8.87759C5.51835 8.13853 6.06052 7.5565 6.7489 7.35894C7.99669 7 13 7 13 7C13 7 18.0033 7 19.2511 7.35894ZM15.5454 13.0122L11.3636 10.4745V15.5497L15.5454 13.0122Z" fill="#3C3C3C"/>
</svg>
