<svg width="26" height="26" viewBox="0 0 26 26" fill="none" xmlns="http://www.w3.org/2000/svg">
<path d="M16.0648 6.82717C15.2653 6.79033 15.0248 6.78383 13 6.78383C10.9753 6.78383 10.7358 6.79142 9.93633 6.82717C7.87908 6.92142 6.92142 7.89533 6.82717 9.93633C6.79142 10.7358 6.78275 10.9753 6.78275 13C6.78275 15.0248 6.79142 15.2642 6.82717 16.0648C6.92142 18.1003 7.87475 19.0797 9.93633 19.1739C10.7348 19.2097 10.9753 19.2183 13 19.2183C15.0258 19.2183 15.2653 19.2108 16.0648 19.1739C18.122 19.0807 19.0786 18.1036 19.1739 16.0648C19.2097 15.2653 19.2173 15.0248 19.2173 13C19.2173 10.9753 19.2097 10.7358 19.1739 9.93633C19.0786 7.89642 18.1198 6.92142 16.0648 6.82717ZM13 16.8946C10.8496 16.8946 9.10542 15.1515 9.10542 13C9.10542 10.8496 10.8496 9.1065 13 9.1065C15.1504 9.1065 16.8946 10.8496 16.8946 13C16.8946 15.1504 15.1504 16.8946 13 16.8946ZM17.0484 9.86267C16.5458 9.86267 16.1384 9.45533 16.1384 8.95267C16.1384 8.45 16.5458 8.04267 17.0484 8.04267C17.5511 8.04267 17.9584 8.45 17.9584 8.95267C17.9584 9.45425 17.5511 9.86267 17.0484 9.86267ZM15.5274 13C15.5274 14.3964 14.3953 15.5274 13 15.5274C11.6047 15.5274 10.4726 14.3964 10.4726 13C10.4726 11.6036 11.6047 10.4726 13 10.4726C14.3953 10.4726 15.5274 11.6036 15.5274 13ZM13 0C5.82075 0 0 5.82075 0 13C0 20.1793 5.82075 26 13 26C20.1793 26 26 20.1793 26 13C26 5.82075 20.1793 0 13 0ZM20.5378 16.1265C20.4133 18.8836 18.8782 20.4111 16.1276 20.5378C15.3183 20.5747 15.0594 20.5833 13 20.5833C10.9406 20.5833 10.6828 20.5747 9.8735 20.5378C7.1175 20.4111 5.58892 18.8814 5.46217 16.1265C5.42533 15.3183 5.41667 15.0594 5.41667 13C5.41667 10.9406 5.42533 10.6828 5.46217 9.8735C5.58892 7.1175 7.11858 5.58892 9.8735 5.46325C10.6828 5.42533 10.9406 5.41667 13 5.41667C15.0594 5.41667 15.3183 5.42533 16.1276 5.46325C18.8847 5.59 20.4143 7.12292 20.5378 9.8735C20.5747 10.6828 20.5833 10.9406 20.5833 13C20.5833 15.0594 20.5747 15.3183 20.5378 16.1265Z" fill="#3C3C3C"/>
</svg>
